<?xml version="1.0" encoding="iso-8859-1"?>
<!-- Generator: Adobe Illustrator 19.0.0, SVG Export Plug-In . SVG Version: 6.00 Build 0)  -->
<svg version="1.1" id="Layer_1" xmlns="http://www.w3.org/2000/svg" xmlns:xlink="http://www.w3.org/1999/xlink" x="0px" y="0px"
	 viewBox="0 0 512 512" style="enable-background:new 0 0 512 512;" xml:space="preserve">
<path style="fill:#49516D;" d="M276.204,374.251c0-7.457-6.045-13.503-13.503-13.503h-94.393c-7.457,0-13.503,6.046-13.503,13.503
	v107.265c0,7.457,6.046,13.503,13.503,13.503h94.393c7.458,0,13.503-6.046,13.503-13.503V374.251z"/>
<path style="fill:#374059;" d="M177.26,481.515V374.251c0-7.457,6.046-13.503,13.503-13.503h-22.455
	c-7.457,0-13.503,6.046-13.503,13.503v107.265c0,7.457,6.046,13.503,13.503,13.503h22.455
	C183.306,495.018,177.26,488.972,177.26,481.515z"/>
<path style="fill:#677291;" d="M265.51,57.956c-17.207,0-32.724,7.18-43.754,18.693c2.491,7.994,3.833,16.494,3.833,25.31
	c0,16.79-4.889,32.428-13.293,45.611c1.595,2.917,3.446,5.667,5.481,8.269h95.489c8.04-10.284,12.845-23.219,12.845-37.283
	C326.11,85.087,298.978,57.956,265.51,57.956z M265.511,137.27c-10.338,0-18.717-8.378-18.717-18.714s8.379-18.716,18.717-18.716
	c10.336,0,18.716,8.379,18.716,18.716S275.846,137.27,265.511,137.27z"/>
<path style="fill:#4E5C7C;" d="M247.277,101.705c0-13.467-2.482-26.353-7.001-38.233c-6.987,3.21-13.266,7.695-18.52,13.178
	c2.491,7.994,3.833,16.494,3.833,25.31c0,16.79-4.889,32.428-13.293,45.611c1.595,2.917,3.446,5.667,5.481,8.269h14.885
	C241.944,139.937,247.277,121.448,247.277,101.705z"/>
<path style="fill:#49516D;" d="M142.864,16.982c-46.932,0-84.981,38.046-84.981,84.978c0,20.453,7.23,39.215,19.268,53.879h131.422
	c12.036-14.665,19.266-33.426,19.266-53.879C227.84,55.026,189.793,16.982,142.864,16.982z M142.865,121.818
	c-10.339,0-18.717-8.379-18.717-18.716c0-10.336,8.377-18.717,18.717-18.717c10.333,0,18.716,8.38,18.716,18.717
	S153.198,121.818,142.865,121.818z"/>
<path style="fill:#677291;" d="M192.068,155.838h16.507c12.036-14.665,19.266-33.426,19.266-53.879
	c0-22.496-8.757-42.935-23.028-58.136c-8.976,27.453-13.85,56.764-13.85,87.218C190.963,139.399,191.351,147.666,192.068,155.838z"
	/>
<path style="fill:#374059;" d="M154.091,17.743c-3.676-0.486-7.419-0.762-11.227-0.762c-46.932,0-84.981,38.046-84.981,84.978
	c0,20.453,7.23,39.215,19.268,53.879h22.455c-12.038-14.665-19.268-33.426-19.268-53.879
	C80.339,58.835,112.469,23.24,154.091,17.743z"/>
<g>
	<polygon style="fill:#4DB2F7;" points="476.475,184.852 382.059,218.237 382.059,346.855 476.475,380.239 	"/>
	<path style="fill:#4DB2F7;" d="M50.077,199.845H18.209C8.154,199.845,0,207.999,0,218.055v128.985
		c0,10.055,8.154,18.21,18.209,18.21h31.868V199.845z"/>
</g>
<path style="fill:#9D9FA5;" d="M364.975,155.838H66.036c-10.058,0-18.209,8.154-18.209,18.21v216.997
	c0,10.058,8.151,18.211,18.209,18.211h255.14h25.123h18.676c10.055,0,18.21-8.154,18.21-18.211V174.048
	C383.184,163.992,375.03,155.838,364.975,155.838z"/>
<path style="fill:#B1B3BA;" d="M364.975,155.838H192.068c9.881,112.764,86.482,206.387,190.108,241.141
	c0.643-1.862,1.008-3.854,1.008-5.934V174.048C383.184,163.992,375.03,155.838,364.975,155.838z"/>
<g style="opacity:0.55;">
	<path style="fill:#F5F5F5;" d="M311.611,244.451H119.4c-4.661,0-8.44-3.779-8.44-8.44c0-4.661,3.779-8.44,8.44-8.44h192.212
		c4.661,0,8.44,3.779,8.44,8.44C320.051,240.673,316.271,244.451,311.611,244.451z"/>
</g>
<g style="opacity:0.55;">
	<path style="fill:#F5F5F5;" d="M311.611,290.987H119.4c-4.661,0-8.44-3.778-8.44-8.44s3.779-8.44,8.44-8.44h192.212
		c4.661,0,8.44,3.778,8.44,8.44C320.051,287.208,316.271,290.987,311.611,290.987z"/>
</g>
<g style="opacity:0.55;">
	<path style="fill:#F5F5F5;" d="M215.506,337.521h-96.105c-4.661,0-8.44-3.778-8.44-8.44s3.779-8.44,8.44-8.44h96.105
		c4.661,0,8.44,3.778,8.44,8.44S220.166,337.521,215.506,337.521z"/>
</g>
<path style="fill:#9D9FA5;" d="M512,390.367c0,10.43-8.455,18.889-18.888,18.889l0,0c-10.432,0-18.888-8.46-18.888-18.889v-215.64
	c0-10.432,8.456-18.889,18.888-18.889l0,0c10.432,0,18.888,8.456,18.888,18.889V390.367z"/>
<path style="fill:#2398CC;" d="M22.455,347.039V218.055c0-10.055,8.154-18.21,18.209-18.21H18.209
	C8.154,199.845,0,207.999,0,218.055v128.985c0,10.055,8.154,18.21,18.209,18.21h22.455C30.609,365.25,22.455,357.096,22.455,347.039
	z"/>
<g>
	<path style="fill:#666E7F;" d="M70.281,391.045V174.048c0-10.057,8.151-18.21,18.209-18.21H66.036
		c-10.058,0-18.209,8.154-18.209,18.21v216.997c0,10.058,8.151,18.211,18.209,18.211H88.49
		C78.433,409.256,70.281,401.102,70.281,391.045z"/>
	<path style="fill:#666E7F;" d="M496.679,390.367v-215.64c0-6.222,3.021-11.723,7.661-15.165c-3.141-2.329-7.016-3.724-11.228-3.724
		c-10.432,0-18.888,8.456-18.888,18.889v215.64c0,10.43,8.456,18.889,18.888,18.889c4.211,0,8.087-1.395,11.228-3.726
		C499.7,402.089,496.679,396.586,496.679,390.367z"/>
</g>
<g>
</g>
<g>
</g>
<g>
</g>
<g>
</g>
<g>
</g>
<g>
</g>
<g>
</g>
<g>
</g>
<g>
</g>
<g>
</g>
<g>
</g>
<g>
</g>
<g>
</g>
<g>
</g>
<g>
</g>
</svg>
